<?xml version="1.0" encoding="UTF-8"?>
<svg xmlns="http://www.w3.org/2000/svg" xmlns:xlink="http://www.w3.org/1999/xlink" width="54px" height="54px" viewBox="0 0 54 53" version="1.1">
<g id="surface1">
<path style=" stroke:none;fill-rule:nonzero;fill:rgb(0%,0%,0%);fill-opacity:1;" d="M 8.097656 6.542969 C 6.476562 6.894531 5.0625 8.164062 4.722656 9.570312 C 4.566406 10.121094 4.550781 31.738281 4.6875 31.953125 C 4.738281 32.054688 4.824219 32.273438 4.859375 32.472656 C 4.941406 32.925781 5.984375 34.28125 6.253906 34.296875 C 6.359375 34.296875 6.476562 34.363281 6.511719 34.429688 C 6.546875 34.5625 9.953125 36.636719 10.089844 36.636719 C 10.125 36.636719 10.140625 32.972656 10.140625 28.472656 C 10.125 23.992188 10.175781 20.191406 10.261719 20.042969 C 10.328125 19.890625 10.328125 19.722656 10.261719 19.675781 C 10.109375 19.589844 10.140625 18.203125 10.296875 17.800781 C 10.347656 17.667969 10.328125 17.566406 10.246094 17.566406 C 10.109375 17.566406 10.160156 15.992188 10.3125 15.59375 C 10.347656 15.492188 10.328125 15.390625 10.261719 15.390625 C 10.089844 15.390625 10.140625 14.488281 10.3125 14.21875 C 10.378906 14.121094 10.347656 13.953125 10.261719 13.835938 C 10.175781 13.71875 10.140625 13.5 10.210938 13.351562 C 10.296875 13.097656 10.449219 13.132812 11.386719 13.71875 C 11.984375 14.085938 12.496094 14.386719 12.546875 14.386719 C 12.597656 14.386719 12.714844 14.472656 12.835938 14.554688 C 13.175781 14.839844 16.773438 17.082031 17.214844 17.28125 C 18 17.648438 21.035156 19.691406 21.101562 19.910156 C 21.152344 20.042969 21.121094 20.109375 21.050781 20.042969 C 20.984375 19.976562 20.609375 20.144531 20.234375 20.410156 C 19.839844 20.695312 19.464844 20.914062 19.398438 20.914062 C 19.3125 20.914062 18.785156 21.214844 18.222656 21.582031 C 17.660156 21.949219 17.128906 22.25 17.046875 22.25 C 16.960938 22.25 16.824219 22.382812 16.722656 22.535156 C 16.636719 22.703125 16.535156 22.800781 16.5 22.769531 C 16.464844 22.734375 15.851562 23.035156 15.136719 23.4375 C 14.0625 24.039062 13.808594 24.257812 13.789062 24.59375 C 13.738281 25.695312 13.722656 38.429688 13.773438 38.664062 C 13.808594 38.8125 14.046875 39.046875 14.285156 39.164062 C 14.539062 39.296875 14.777344 39.433594 14.828125 39.480469 C 14.933594 39.582031 15.527344 39.917969 16.277344 40.300781 C 16.550781 40.453125 16.824219 40.601562 16.875 40.652344 C 16.925781 40.703125 17.351562 40.972656 17.8125 41.238281 C 18.289062 41.523438 18.816406 41.824219 19.003906 41.941406 C 19.191406 42.058594 19.484375 42.210938 19.652344 42.257812 C 19.808594 42.308594 19.941406 42.425781 19.941406 42.511719 C 19.941406 42.59375 20.027344 42.660156 20.113281 42.660156 C 20.214844 42.660156 20.710938 42.929688 21.222656 43.246094 C 21.734375 43.5625 22.160156 43.765625 22.160156 43.699219 C 22.160156 43.632812 22.226562 43.664062 22.296875 43.765625 C 22.5 44.101562 25.039062 45.488281 25.753906 45.671875 C 26.488281 45.875 27.578125 45.855469 27.871094 45.65625 C 27.972656 45.589844 28.109375 45.539062 28.175781 45.539062 C 28.433594 45.523438 29.316406 45.085938 29.316406 44.96875 C 29.316406 44.886719 29.386719 44.835938 29.488281 44.835938 C 29.710938 44.835938 31.433594 43.796875 31.5 43.632812 C 31.535156 43.5625 31.703125 43.496094 31.875 43.496094 C 32.046875 43.496094 32.214844 43.429688 32.25 43.347656 C 32.285156 43.261719 33.253906 42.628906 34.433594 41.941406 C 35.609375 41.238281 37.261719 40.25 38.128906 39.734375 C 39 39.230469 39.75 38.730469 39.800781 38.644531 C 39.902344 38.496094 39.972656 30.800781 39.886719 30.363281 C 39.851562 30.265625 39.851562 30.128906 39.871094 30.046875 C 39.902344 29.894531 39.902344 26.601562 39.886719 22.117188 C 39.886719 20.746094 39.816406 19.910156 39.714844 19.910156 C 39.613281 19.910156 38.863281 20.359375 38.011719 20.894531 C 37.175781 21.449219 36.339844 21.933594 36.152344 22 C 35.949219 22.050781 35.796875 22.183594 35.796875 22.265625 C 35.796875 22.351562 35.675781 22.417969 35.539062 22.417969 C 35.402344 22.417969 35.285156 22.484375 35.285156 22.585938 C 35.285156 22.667969 35.183594 22.753906 35.046875 22.753906 C 34.925781 22.753906 34.722656 22.871094 34.601562 23.003906 C 34.484375 23.152344 34.347656 23.222656 34.3125 23.1875 C 34.261719 23.136719 34.074219 23.253906 33.871094 23.4375 C 33.683594 23.605469 33.410156 23.757812 33.289062 23.757812 C 33.171875 23.757812 33.066406 23.839844 33.066406 23.941406 C 33.066406 24.023438 33 24.058594 32.898438 24.007812 C 32.8125 23.957031 32.726562 23.992188 32.726562 24.074219 C 32.726562 24.175781 32.609375 24.257812 32.472656 24.257812 C 32.351562 24.257812 32.148438 24.390625 32.0625 24.542969 C 31.960938 24.710938 31.875 24.792969 31.875 24.710938 C 31.875 24.574219 31.089844 25.027344 30.714844 25.378906 C 30.597656 25.496094 30.375 25.597656 30.238281 25.597656 C 30.101562 25.597656 30 25.664062 30 25.765625 C 30 25.847656 29.933594 25.929688 29.828125 25.929688 C 29.625 25.929688 27.628906 27.136719 27.171875 27.554688 C 26.828125 27.855469 26.8125 28.054688 26.777344 30.699219 C 26.761719 32.625 26.8125 33.558594 26.949219 33.644531 C 27.121094 33.742188 28.058594 33.207031 29.660156 32.136719 C 29.898438 31.96875 30.203125 31.804688 30.339844 31.738281 C 30.476562 31.667969 30.835938 31.46875 31.109375 31.285156 C 31.398438 31.101562 31.753906 30.898438 31.925781 30.851562 C 32.078125 30.78125 32.214844 30.664062 32.214844 30.566406 C 32.214844 30.464844 32.265625 30.449219 32.335938 30.5 C 32.386719 30.566406 32.589844 30.5 32.761719 30.332031 C 32.933594 30.179688 33.066406 30.113281 33.066406 30.179688 C 33.066406 30.246094 33.238281 30.148438 33.441406 29.945312 C 34.210938 29.242188 34.261719 29.394531 34.261719 32.691406 L 34.261719 35.769531 L 32.675781 36.738281 C 31.824219 37.273438 31.058594 37.792969 30.988281 37.894531 C 30.921875 37.976562 30.851562 37.992188 30.851562 37.910156 C 30.851562 37.824219 30.683594 37.910156 30.476562 38.09375 C 30.253906 38.277344 29.964844 38.480469 29.828125 38.527344 C 29.691406 38.59375 29.265625 38.828125 28.890625 39.0625 C 28.515625 39.296875 27.902344 39.632812 27.527344 39.832031 C 26.878906 40.152344 26.8125 40.152344 26.214844 39.917969 C 25.859375 39.765625 25.566406 39.566406 25.566406 39.464844 C 25.566406 39.382812 25.5 39.332031 25.414062 39.382812 C 25.328125 39.433594 25.175781 39.363281 25.058594 39.230469 C 24.9375 39.097656 24.75 38.980469 24.628906 38.980469 C 24.511719 38.980469 24.324219 38.863281 24.203125 38.730469 C 24.085938 38.59375 23.949219 38.511719 23.878906 38.5625 C 23.8125 38.59375 23.558594 38.445312 23.300781 38.210938 C 23.0625 37.992188 22.789062 37.808594 22.722656 37.808594 C 22.636719 37.808594 22.191406 37.558594 21.734375 37.273438 C 21.253906 36.972656 20.675781 36.621094 20.453125 36.503906 C 19.3125 35.917969 19.378906 36.1875 19.347656 31.835938 C 19.328125 29.644531 19.378906 27.671875 19.433594 27.4375 C 19.5 27.203125 19.773438 26.902344 20.046875 26.769531 C 20.316406 26.632812 20.574219 26.464844 20.625 26.398438 C 20.675781 26.332031 20.914062 26.183594 21.136719 26.066406 C 22.191406 25.511719 25.753906 23.371094 25.839844 23.238281 C 25.890625 23.152344 26.046875 23.085938 26.183594 23.085938 C 26.316406 23.085938 27.035156 22.71875 27.785156 22.25 C 28.535156 21.800781 29.214844 21.414062 29.300781 21.414062 C 29.402344 21.414062 29.539062 21.3125 29.609375 21.195312 C 29.761719 20.980469 30.921875 20.277344 31.414062 20.125 C 31.566406 20.074219 31.703125 19.976562 31.703125 19.890625 C 31.703125 19.808594 31.824219 19.742188 31.960938 19.742188 C 32.097656 19.742188 32.214844 19.65625 32.214844 19.574219 C 32.214844 19.472656 32.285156 19.40625 32.371094 19.40625 C 32.453125 19.40625 33.085938 19.070312 33.785156 18.652344 C 34.464844 18.234375 35.164062 17.851562 35.335938 17.800781 C 35.488281 17.734375 35.625 17.632812 35.625 17.550781 C 35.625 17.464844 35.746094 17.398438 35.878906 17.398438 C 36.035156 17.398438 36.308594 17.25 36.511719 17.0625 C 36.714844 16.878906 36.988281 16.730469 37.109375 16.730469 C 37.226562 16.730469 37.328125 16.644531 37.328125 16.5625 C 37.328125 16.460938 37.398438 16.394531 37.5 16.394531 C 37.585938 16.394531 38.488281 15.910156 39.476562 15.308594 C 40.484375 14.707031 41.335938 14.21875 41.386719 14.21875 C 41.4375 14.21875 41.726562 14.035156 42.050781 13.785156 C 42.359375 13.550781 42.613281 13.417969 42.613281 13.484375 C 42.613281 13.550781 42.765625 13.46875 42.9375 13.316406 C 43.125 13.148438 43.328125 13.050781 43.414062 13.097656 C 43.484375 13.148438 43.550781 18.503906 43.550781 24.996094 C 43.550781 36.804688 43.585938 37.390625 44.097656 36.605469 C 44.164062 36.488281 44.523438 36.238281 44.878906 36.070312 C 45.222656 35.886719 45.511719 35.683594 45.511719 35.601562 C 45.511719 35.535156 45.597656 35.46875 45.699219 35.46875 C 45.800781 35.46875 46.175781 35.234375 46.535156 34.964844 C 46.890625 34.679688 47.234375 34.464844 47.285156 34.464844 C 47.4375 34.464844 48.066406 33.8125 48.066406 33.644531 C 48.066406 33.558594 48.152344 33.460938 48.253906 33.425781 C 48.359375 33.394531 48.5625 32.992188 48.714844 32.539062 C 48.988281 31.785156 49.003906 30.597656 48.988281 20.746094 L 48.972656 9.785156 L 48.597656 8.917969 C 48.238281 8.128906 47.113281 6.960938 46.773438 7.027344 C 46.703125 7.042969 46.601562 6.976562 46.550781 6.875 C 46.261719 6.425781 43.875 6.308594 43.074219 6.707031 C 42.871094 6.808594 41.402344 7.695312 39.800781 8.648438 C 38.214844 9.601562 36.785156 10.457031 36.648438 10.539062 C 36.511719 10.625 35.625 11.160156 34.6875 11.726562 C 33.75 12.296875 32.761719 12.898438 32.472656 13.050781 C 31.175781 13.769531 28.703125 15.308594 28.601562 15.476562 C 28.535156 15.558594 28.464844 15.59375 28.464844 15.523438 C 28.464844 15.457031 28.058594 15.660156 27.546875 15.976562 L 26.625 16.546875 L 25.378906 15.777344 C 24.683594 15.359375 23.625 14.6875 23.011719 14.304688 C 22.398438 13.917969 21.714844 13.5 21.496094 13.382812 C 21.253906 13.265625 20.984375 13.097656 20.898438 13.015625 C 20.503906 12.699219 16.328125 10.207031 16.175781 10.207031 C 16.089844 10.207031 16.023438 10.136719 16.023438 10.054688 C 16.023438 9.972656 15.851562 9.835938 15.648438 9.769531 C 15.425781 9.703125 15.222656 9.601562 15.171875 9.535156 C 14.964844 9.25 10.140625 6.523438 9.816406 6.507812 C 9.613281 6.492188 9.273438 6.472656 9.035156 6.457031 C 8.796875 6.441406 8.386719 6.472656 8.097656 6.542969 Z M 8.097656 6.542969 "/>
</g>
</svg>
